

[center]*********** ****    ****      ***      ******** *********** ****    *** **********
          *+*     +*+*+* *+*+*+   *+* *+*   *+*    *+*    *+*     *+*+*   *+* *+*        
          +*+     +*+ +*+*+ +*+  +*+   +*+  +*+           +*+     *+*+*+  +*+ +*+        
          +$+     +$+  +*+  +$+ +$++*++$++* *$*           +$+     +$+ +*+ +$+ +$++*++$  
          +$+     +$+       +$+ +$+     +$+ +$+   +$+$    +$+     +$+  +$+$+$ +$+        
          $+$     $+$       $+$ $+$     $+$ $+$    $+$    $+$     $+$   $+$+$ $+$        
      $$$$$$$$$$$ $$$       $$$ $$$     $$$  $$$$$$$$ $$$$$$$$$$$ $$$    $$$$ $$$$$$$$$$    
                                               



                          Another Fine Release Brought to you from - IMAGiNE                  
                                               

****************************************************************************************************

****************                                
                                                                                                   

                              Bloomington SUBBED DVDSCR XViD - IMAGiNE
****************************************************************************************************

****************

Ripper ...........: IMAGiNE                                        IMDB Rating.......:7.8/10        

                   
Video Codec.......: XVID                                         Release Date......:NA
Audio Codec.......:MP3                                           Theatre Date......:NA
Audio Bitrate.....:128                                              Runtime.......:1h 23mn
Subtitles.........:NIL                                                 Language..........:ENGLISH
Resolution...... 720 x 368                                      IMDb

URL..........:http://www.imdb.com/title/tt1409004/


DETAILS:

Video
Format                           : MPEG-4 Visual
Format profile                   : Streaming Video@L1
Format settings, BVOP            : Yes
Format settings, QPel            : No
Format settings, GMC             : No warppoints
Format settings, Matrix          : Default
Muxing mode                      : Packed bitstream
Codec ID                         : XVID
Codec ID/Hint                    : XviD
Duration                         : 1h 23mn
Bit rate                         : 2 810 Kbps
Width                            : 720 pixels
Height                           : 368 pixels
Display aspect ratio             : 1.957
Frame rate                       : 23.976 fps
Resolution                       : 24 bits
Colorimetry                      : 4:2:0
Scan type                        : Progressive
Bits/(Pixel*Frame)               : 0.442
Stream size                      : 1.63 GiB (95%)
Writing library                  : XviD 1.1.2 (UTC 2006-11-01)

Audio
Format                           : MPEG Audio
Format version                   : Version 1
Format profile                   : Layer 3
Codec ID                         : 55
Codec ID/Hint                    : MP3
Duration                         : 1h 23mn
Bit rate mode                    : Constant
Bit rate                         : 128 Kbps
Channel(s)                       : 2 channels
Sampling rate                    : 48.0 KHz
Resolution                       : 16 bits
Stream size                      : 76.2 MiB (4%)
Alignment                        : Split accross interleaves
Interleave, duration             : 42 ms (1.00 video frame)
Interleave, preload duration     : 500 ms





SOURCES:

VIDEO:Special friend...Thanks
AUDIO:Special friend...Thanks

NOTES:

IMAGiNE bringing you another release..........Bloomington SUBBED DVDSCR
We where given Bloomington from a good friend but it has subs hardcode which we decided to leave

them and not blur them. So we just made a small script containing crop,resize,white balance,rgb

eq,sharpness,chroma,brightness,contrast ect.Then we took the audio and mux back to our encode

Enjoy
[/center]

[center][img]http://img195.imageshack.us/img195/3221/05h50m25s1231.png[/img][/center]
[center][img]http://img824.imageshack.us/img824/6033/05h50m25s1233.png[/img][/center]
[center][img]http://img9.imageshack.us/img9/1714/05h50m25s1235.png[/img][/center]